<?xml version="1.0" standalone="no"?>
<!DOCTYPE svg PUBLIC "-//W3C//DTD SVG 20010904//EN"
 "http://www.w3.org/TR/2001/REC-SVG-20010904/DTD/svg10.dtd">
<svg version="1.0" xmlns="http://www.w3.org/2000/svg"
 width="616.000000pt" height="616.000000pt" viewBox="0 0 616.000000 616.000000"
 preserveAspectRatio="xMidYMid meet">
<metadata>
Created by potrace 1.14, written by Peter Selinger 2001-2017
</metadata>
<g transform="translate(0.000000,616.000000) scale(0.100000,-0.100000)"
fill="#000000" stroke="none">
<path d="M2819 6156 c-2 -2 -35 -6 -74 -10 -102 -10 -196 -22 -235 -30 -13 -3
-42 -8 -64 -12 -22 -3 -43 -7 -46 -9 -3 -2 -23 -6 -45 -10 -46 -8 -70 -13 -70
-15 0 -2 -15 -5 -55 -14 -102 -23 -381 -122 -452 -161 -14 -8 -33 -15 -42 -15
-9 0 -16 -4 -16 -10 0 -5 -6 -10 -12 -10 -26 0 -197 -94 -353 -194 -60 -39
-112 -73 -115 -76 -3 -4 -32 -26 -65 -50 -195 -143 -540 -493 -599 -607 -9
-18 -12 -33 -7 -33 5 0 11 4 13 8 3 7 72 64 143 117 70 53 305 175 337 175 9
0 19 4 22 9 5 8 89 31 166 47 44 8 134 6 185 -6 101 -22 192 -82 295 -194 25
-28 55 -60 68 -73 12 -13 22 -26 22 -29 0 -25 250 -284 273 -284 9 0 31 -9 49
-19 18 -11 67 -26 108 -35 178 -36 390 8 650 137 69 34 127 65 128 70 2 4 8 7
13 7 41 0 661 413 741 493 9 9 21 17 26 17 6 0 12 3 14 8 3 6 79 72 141 122
52 42 173 149 241 213 23 22 62 59 88 83 61 57 69 85 31 111 -32 22 -199 88
-323 128 -94 30 -108 34 -115 35 -3 1 -19 6 -37 11 -18 6 -44 12 -58 15 -14 3
-38 9 -55 14 -49 14 -207 43 -311 56 -21 2 -55 6 -74 9 -41 5 -526 15 -531 11z"/>
<path d="M5048 5303 c-60 -65 -375 -380 -423 -424 -22 -20 -78 -68 -124 -108
-46 -40 -90 -78 -97 -86 -8 -8 -36 -31 -62 -52 -26 -21 -54 -44 -62 -52 -29
-28 -196 -158 -275 -214 -44 -31 -84 -60 -90 -65 -28 -23 -202 -125 -285 -168
-126 -66 -296 -136 -359 -149 -9 -2 -38 -9 -66 -15 -117 -28 -335 -9 -402 35
-12 9 -23 13 -23 10 0 -13 -134 73 -195 125 -46 39 -205 203 -254 262 -58 69
-175 172 -234 207 -26 15 -44 31 -40 36 5 4 4 6 -2 3 -5 -3 -37 0 -70 7 -135
28 -279 -5 -432 -102 -35 -22 -208 -149 -248 -183 -39 -32 -261 -255 -297
-297 -56 -65 -245 -321 -298 -403 -30 -47 -58 -86 -62 -88 -5 -2 -8 -10 -8
-18 0 -8 -5 -14 -11 -14 -5 0 -8 -4 -4 -9 3 -5 1 -12 -4 -16 -9 -5 -112 -173
-169 -275 -14 -25 -53 -94 -87 -155 -34 -60 -77 -137 -95 -170 -18 -33 -54
-98 -81 -145 -172 -305 -178 -398 -49 -746 59 -159 107 -261 126 -268 7 -3 17
1 22 7 20 25 192 317 192 327 0 6 4 10 9 10 5 0 16 15 25 33 26 51 168 272
177 275 5 2 9 8 9 14 0 8 74 122 90 138 3 3 23 32 44 65 110 170 404 542 540
684 180 188 386 334 581 411 76 30 229 70 267 70 12 0 30 0 38 1 42 5 142 -15
195 -39 57 -26 149 -92 188 -136 10 -12 31 -35 45 -51 23 -26 115 -139 162
-200 41 -53 138 -137 191 -165 91 -48 155 -64 264 -64 64 0 190 16 190 24 0 1
8 3 17 5 25 5 119 35 143 45 11 5 43 18 71 29 77 30 208 93 216 105 4 6 8 7 8
3 0 -5 13 1 29 12 16 12 31 21 34 21 3 0 32 17 66 38 192 118 251 157 251 164
0 4 6 8 13 9 6 0 32 16 57 35 25 19 53 37 63 40 9 4 17 10 17 15 0 5 6 9 14 9
8 0 16 3 18 8 2 4 37 32 78 62 41 29 81 59 87 64 7 6 23 19 35 28 76 57 220
178 338 283 56 49 364 358 405 406 17 19 57 65 90 103 80 92 80 113 -1 222
-33 43 -66 88 -76 99 -91 111 -137 165 -158 187 -130 135 -159 162 -182 174
-15 8 -29 14 -32 14 -2 0 -24 -21 -48 -47z"/>
<path d="M5825 3687 c-141 -142 -307 -301 -385 -367 -14 -11 -36 -31 -50 -43
-32 -30 -217 -184 -259 -217 -18 -14 -41 -32 -51 -41 -10 -8 -31 -24 -45 -35
-15 -10 -32 -23 -39 -29 -36 -31 -251 -175 -331 -222 -64 -37 -193 -105 -205
-108 -3 -1 -32 -13 -64 -28 -90 -42 -136 -56 -251 -82 -181 -41 -388 -6 -528
89 -21 14 -40 26 -43 26 -9 0 -99 87 -198 189 -182 187 -242 247 -286 282
-154 123 -322 138 -505 47 -40 -20 -151 -86 -170 -101 -5 -4 -33 -25 -62 -45
-28 -21 -71 -54 -95 -72 -49 -39 -318 -304 -318 -314 0 -3 -8 -14 -17 -24 -58
-60 -303 -391 -303 -408 0 -4 -15 -27 -33 -53 -19 -25 -51 -75 -73 -111 -21
-36 -41 -67 -45 -70 -3 -3 -17 -25 -30 -50 -14 -25 -50 -88 -81 -140 -92 -160
-164 -293 -282 -525 -47 -93 -91 -175 -96 -182 -6 -7 -10 -16 -10 -21 0 -4
-15 -39 -34 -76 -29 -58 -33 -72 -24 -97 5 -16 13 -29 16 -29 4 0 21 -13 37
-28 17 -15 66 -57 110 -92 44 -36 82 -67 85 -70 13 -14 117 -88 135 -97 11 -5
26 -8 33 -7 6 1 16 2 21 3 8 1 70 93 116 172 72 123 392 600 408 607 4 2 7 10
7 18 0 8 4 14 8 14 4 0 16 13 25 30 10 16 23 35 30 42 7 7 32 39 56 72 24 32
51 66 60 75 9 9 33 39 54 66 114 148 306 343 428 434 46 34 91 68 100 75 24
20 229 121 264 131 36 10 36 10 55 18 18 8 91 26 140 34 19 4 71 7 115 7 139
-1 236 -47 350 -167 33 -34 67 -71 75 -82 56 -74 160 -197 198 -233 174 -166
355 -203 637 -130 44 11 84 25 90 29 5 5 16 9 24 9 18 0 277 127 353 173 31
19 59 32 62 29 3 -3 6 -1 6 5 0 5 12 15 28 22 15 7 43 23 62 35 48 32 259 172
290 193 37 26 253 186 266 198 6 6 26 21 44 35 18 14 41 32 50 40 10 8 34 29
55 45 43 35 38 31 135 114 107 92 157 150 143 165 -3 3 -2 6 4 6 24 0 35 117
29 297 -6 170 -8 203 -21 301 -3 23 -8 63 -11 90 -5 38 -36 202 -61 320 -3 12
-13 22 -22 22 -9 0 -88 -74 -176 -163z"/>
<path d="M3670 1747 c-3 -3 -18 -8 -34 -11 -102 -18 -294 -130 -440 -256 -137
-118 -281 -263 -361 -364 -16 -21 -37 -45 -46 -54 -49 -52 -269 -363 -269
-380 0 -6 -4 -12 -8 -14 -8 -3 -99 -145 -155 -243 -162 -282 -164 -287 -143
-304 12 -10 70 -26 125 -36 19 -3 37 -8 40 -10 4 -2 27 -6 51 -10 25 -4 68
-11 95 -16 65 -13 125 -22 245 -36 109 -13 635 -7 635 8 0 1 14 3 30 5 290 33
705 161 990 307 159 81 408 237 482 301 14 13 26 22 68 54 169 130 485 465
461 489 -3 3 -45 -10 -93 -30 -76 -32 -144 -54 -243 -82 -92 -25 -246 -25
-364 0 -148 31 -329 174 -571 452 -83 96 -148 148 -234 190 -63 31 -85 37
-165 41 -50 2 -93 2 -96 -1z"/>
</g>
</svg>
